<svg width="26" height="26" viewBox="0 0 26 26" fill="none" xmlns="http://www.w3.org/2000/svg">
<path d="M13 26C5.83223 26 0 20.1678 0 13C0 5.83223 5.83223 0 13 0C20.1678 0 26 5.83223 26 13C26 20.1678 20.1678 26 13 26ZM13 2.50668C7.21318 2.50668 2.50512 7.21474 2.50512 13.0016C2.50512 18.7884 7.21318 23.4964 13 23.4964C18.7868 23.4964 23.4949 18.7884 23.4949 13.0016C23.4949 7.21474 18.7868 2.50668 13 2.50668Z" fill="#55C2F9"/>
<path d="M18.1448 17.185C17.9742 17.185 17.8004 17.1381 17.6454 17.0394L12.0605 13.5182V6.87179C12.0605 6.35355 12.4817 5.93237 13 5.93237C13.5182 5.93237 13.9394 6.35355 13.9394 6.87179V12.4833L18.6474 15.4518C19.0858 15.7289 19.2174 16.3083 18.9418 16.7482C18.7617 17.03 18.4564 17.185 18.1448 17.185Z" fill="#55C2F9"/>
</svg>
