<svg width="27" height="21" viewBox="0 0 27 21" fill="none" xmlns="http://www.w3.org/2000/svg">
<path d="M6 0H0V6H6V0Z" fill="#FFB10E"/>
<path d="M13 0H7V6H13V0Z" fill="#FFB10E"/>
<path d="M20 0H14V6H20V0Z" fill="#FFB10E"/>
<path d="M27 0H21V6H27V0Z" fill="#FFB10E"/>
<path d="M6 7H0V14H6V7Z" fill="#FFB10E"/>
<path d="M13 7H7V14H13V7Z" fill="#FFB10E"/>
<path d="M20 7H14V14H20V7Z" fill="#FFB10E"/>
<path d="M27 7H21V14H27V7Z" fill="#FFB10E"/>
<path d="M6 15H0V21H6V15Z" fill="#FFB10E"/>
<path d="M13 15H7V21H13V15Z" fill="#FFB10E"/>
<path d="M20 15H14V21H20V15Z" fill="#FFB10E"/>
<path d="M27 15H21V21H27V15Z" fill="#FFB10E"/>
</svg>
