<svg width="27" height="18" viewBox="0 0 27 18" fill="none" xmlns="http://www.w3.org/2000/svg">
<path d="M8.17734 17.2934H1.36396C0.611375 17.2934 0 16.682 0 15.9295V1.36396C0 0.611375 0.611375 0 1.36396 0H23.0573C23.8099 0 24.4213 0.611375 24.4213 1.36396C24.4213 2.11654 23.8099 2.72792 23.0573 2.72792H2.72792V14.5655H8.17734C8.92993 14.5655 9.5413 15.1769 9.5413 15.9295C9.5413 16.682 8.93153 17.2934 8.17734 17.2934Z" fill="#FF2B72"/>
<path d="M26.2779 17.4747H19.1131C18.7135 17.4747 18.391 17.1521 18.391 16.7526V4.51384C18.391 4.11428 18.7135 3.79175 19.1131 3.79175H26.2779C26.6775 3.79175 27 4.11428 27 4.51384V16.7526C27 17.1505 26.6775 17.4747 26.2779 17.4747ZM19.8352 16.0305H25.5558V5.23594H19.8352V16.0305Z" fill="#FF2B72"/>
<path d="M15.8364 16.9355H14.1868C13.1004 16.9355 12.2162 16.0514 12.2162 14.965V10.3629C12.2162 9.2765 13.1004 8.39233 14.1868 8.39233H15.8364C16.9227 8.39233 17.8069 9.2765 17.8069 10.3629V14.965C17.8069 16.0514 16.9227 16.9355 15.8364 16.9355ZM14.1868 9.0342C13.4534 9.0342 12.8581 9.62953 12.8581 10.3629V14.965C12.8581 15.6983 13.4534 16.2937 14.1868 16.2937H15.8364C16.5697 16.2937 17.165 15.6983 17.165 14.965V10.3629C17.165 9.62953 16.5697 9.0342 15.8364 9.0342H14.1868Z" fill="#FF2B72"/>
<path d="M16.4429 7.41187H13.8386V10.0162H16.4429V7.41187Z" fill="#FF2B72"/>
<path d="M16.313 14.7917H13.7086V17.3961H16.313V14.7917Z" fill="#FF2B72"/>
</svg>
