<svg width="11" height="20" viewBox="0 0 11 20" fill="none" xmlns="http://www.w3.org/2000/svg">
<path d="M3.34592 12.0054L0.979492 13.1589C1.36535 14.2571 2.53372 16.2512 5.31839 16.3753V13.739C4.31731 13.5677 3.67916 12.8095 3.34592 12.0054Z" fill="#92D048"/>
<path d="M4.20126 5.85978C4.20126 5.21488 4.60736 4.7022 5.31837 4.56458V1.95801C2.91551 2.13205 1.39771 3.68898 1.39771 5.89891C1.39771 8.58643 3.58335 9.50791 5.31837 10.3403V7.31148C4.65728 6.92562 4.20126 6.49254 4.20126 5.85978Z" fill="#92D048"/>
<path d="M7.74283 6.03805L10.0701 4.98436C9.76522 4.06963 8.79518 2.32921 6.54883 1.99731V4.69294C7.18698 4.97357 7.52427 5.5591 7.74283 6.03805Z" fill="#92D048"/>
<path d="M10.2482 12.1445C10.2482 9.66202 8.24742 8.71896 6.54883 7.927V11.0125C7.06556 11.3674 7.4042 11.7775 7.4042 12.3442C7.4042 12.9769 7.09524 13.4302 6.54883 13.6407V16.3107C8.87748 15.9599 10.2482 14.3099 10.2482 12.1445Z" fill="#92D048"/>
<path d="M6.54879 1.99727V0.92334H5.31836V1.95815C5.46677 1.94735 5.61787 1.94195 5.77303 1.94195C6.04691 1.94061 6.3046 1.96084 6.54879 1.99727Z" fill="#92D048"/>
<path d="M5.31836 16.3753V17.5383H6.54879V16.3105C6.24658 16.3564 5.92818 16.3807 5.59359 16.3807C5.50049 16.3821 5.40875 16.3794 5.31836 16.3753Z" fill="#92D048"/>
<path d="M5.31836 4.56463V7.31153C5.68128 7.52334 6.10492 7.72032 6.54879 7.92674V4.6928C6.31404 4.59027 6.04016 4.52686 5.71366 4.52686C5.572 4.52686 5.44113 4.54035 5.31836 4.56463Z" fill="#92D048"/>
<path d="M6.54879 13.6406V11.0125C6.20206 10.775 5.77572 10.5605 5.31836 10.3406V13.7391C5.45597 13.7634 5.60168 13.7755 5.75279 13.7755C6.05635 13.7755 6.32213 13.7283 6.54879 13.6406Z" fill="#92D048"/>
</svg>
