<svg width="27" height="16" viewBox="0 0 27 16" fill="none" xmlns="http://www.w3.org/2000/svg">
<path d="M25.3304 15.4839H1.66958C0.746812 15.4839 0 14.7358 0 13.8143V2.55605C0 1.63329 0.748115 0.886475 1.66958 0.886475H25.3304C26.2532 0.886475 27 1.63459 27 2.55605V13.8143C27 14.7358 26.2532 15.4839 25.3304 15.4839Z" fill="#FFB10E"/>
<path d="M2.98337 7.32356H6.34077V3.95703H8.62292V7.32356H11.9986V9.60571H8.62292V12.954H6.34077V9.60571H2.98337V7.32356Z" fill="black"/>
<path d="M21.1104 7.38203C22.0072 7.38203 22.7342 6.65499 22.7342 5.75815C22.7342 4.86131 22.0072 4.13428 21.1104 4.13428C20.2135 4.13428 19.4865 4.86131 19.4865 5.75815C19.4865 6.65499 20.2135 7.38203 21.1104 7.38203Z" fill="black"/>
<path d="M16.78 11.7123C17.6769 11.7123 18.4039 10.9853 18.4039 10.0885C18.4039 9.19163 17.6769 8.4646 16.78 8.4646C15.8832 8.4646 15.1562 9.19163 15.1562 10.0885C15.1562 10.9853 15.8832 11.7123 16.78 11.7123Z" fill="black"/>
</svg>
