<svg width="28" height="28" viewBox="0 0 28 28" fill="none" xmlns="http://www.w3.org/2000/svg">
<path d="M26.1165 28H1.88348C0.843231 28 0 27.1567 0 26.1164V1.88358C0 0.843279 0.843231 0 1.88348 0H26.1165C27.1568 0 28 0.843279 28 1.88358V26.118C27.9984 27.1567 27.1552 28 26.1165 28Z" fill="#FFB10E"/>
<path d="M13.0337 18.8533H10.4866V14.4998H7.06459V18.8533H4.5379V9.14697H7.06459V13.1474H10.4866V9.14697H13.0337V18.8533Z" fill="black"/>
<path d="M23.462 17.0234C23.462 17.5939 23.1673 18.0416 22.5762 18.3663C21.9867 18.691 21.1907 18.8533 20.1898 18.8533H15.0418V9.14697H20.1914C21.1923 9.14697 21.9867 9.3109 22.5778 9.64033C23.1673 9.96976 23.4636 10.419 23.4636 10.9896V17.0234H23.462ZM20.9259 16.7822V11.2071C20.9259 10.6649 20.4325 10.3953 19.4474 10.3953H17.5685V17.6081H19.3828C20.4104 17.6066 20.9259 17.3323 20.9259 16.7822Z" fill="black"/>
</svg>
