<svg width="39" height="26" viewBox="0 0 39 26" fill="none" xmlns="http://www.w3.org/2000/svg">
<path d="M22.0039 26.0001H0.720757C0.321808 26.0001 0 25.6783 0 25.2794V21.7396C0 21.3406 0.321808 21.0188 0.720757 21.0188H22.0039C22.4029 21.0188 22.7246 21.3406 22.7246 21.7396V25.2794C22.7224 25.6761 22.4007 26.0001 22.0039 26.0001Z" fill="#9260D0"/>
<path d="M7.40377 21.0187H3.65674V4.33113C3.65674 1.93964 5.59638 0 7.98787 0H34.5081C35.0855 0 35.555 0.467277 35.555 1.04697V2.70227C35.555 3.27976 35.0877 3.74924 34.5081 3.74924H8.10689C7.71896 3.74924 7.40377 4.06443 7.40377 4.45236V21.0187Z" fill="#9260D0"/>
<path d="M35.0722 10.0178V22.0876C35.0722 22.1714 35.0039 22.2397 34.9202 22.2397H30.2871C30.2033 22.2397 30.135 22.1714 30.135 22.0876V10.1721C30.135 10.0883 30.2033 10.02 30.2871 10.02H35.0722V10.0178ZM37.2125 6.27075H27.997C27.1087 6.27075 26.3879 6.99151 26.3879 7.87977V24.3799C26.3879 25.2682 27.1087 25.989 27.997 25.989H37.2125C38.1007 25.989 38.8215 25.2682 38.8215 24.3799V7.87977C38.8193 6.99151 38.1007 6.27075 37.2125 6.27075Z" fill="#9260D0"/>
</svg>
