<svg width="18" height="18" viewBox="0 0 18 18" fill="none" xmlns="http://www.w3.org/2000/svg">
<path d="M8.41113 11.0322V10.7686C8.41113 10.3877 8.46973 10.0752 8.58691 9.83105C8.7041 9.58366 8.9222 9.32324 9.24121 9.0498C9.68392 8.67546 9.96224 8.39388 10.0762 8.20508C10.1934 8.01628 10.252 7.78841 10.252 7.52148C10.252 7.18945 10.1445 6.93392 9.92969 6.75488C9.7181 6.57259 9.41211 6.48145 9.01172 6.48145C8.75456 6.48145 8.50391 6.51237 8.25977 6.57422C8.01562 6.63281 7.73568 6.74186 7.41992 6.90137L7.13184 6.24219C7.74707 5.91992 8.38997 5.75879 9.06055 5.75879C9.68229 5.75879 10.1657 5.91178 10.5107 6.21777C10.8558 6.52376 11.0283 6.95508 11.0283 7.51172C11.0283 7.74935 10.9958 7.95931 10.9307 8.1416C10.8688 8.32064 10.776 8.49154 10.6523 8.6543C10.5286 8.8138 10.2617 9.07259 9.85156 9.43066C9.52279 9.71061 9.30469 9.94336 9.19727 10.1289C9.0931 10.3145 9.04102 10.5618 9.04102 10.8711V11.0322H8.41113ZM8.17188 12.4824C8.17188 12.0397 8.36719 11.8184 8.75781 11.8184C8.94661 11.8184 9.09147 11.8753 9.19238 11.9893C9.29655 12.1032 9.34863 12.2676 9.34863 12.4824C9.34863 12.6908 9.29655 12.8535 9.19238 12.9707C9.08822 13.0846 8.94336 13.1416 8.75781 13.1416C8.58854 13.1416 8.44857 13.0911 8.33789 12.9902C8.22721 12.8861 8.17188 12.7168 8.17188 12.4824Z" fill="#AAAAAA"/>
<circle cx="9" cy="9" r="8.5" stroke="#AAAAAA"/>
</svg>
