<svg width="18" height="18" viewBox="0 0 18 18" fill="none" xmlns="http://www.w3.org/2000/svg">
<path d="M9.62 5.95C10.3 5.95 10.8433 6.13667 11.25 6.51C11.6633 6.88333 11.87 7.39333 11.87 8.04C11.87 8.71333 11.6567 9.22 11.23 9.56C10.8033 9.9 10.2367 10.07 9.53 10.07L9.49 10.86H8.5L8.45 9.29H8.78C9.42667 9.29 9.92 9.20333 10.26 9.03C10.6067 8.85667 10.78 8.52667 10.78 8.04C10.78 7.68667 10.6767 7.41 10.47 7.21C10.27 7.01 9.99 6.91 9.63 6.91C9.27 6.91 8.98667 7.00667 8.78 7.2C8.57333 7.39333 8.47 7.66333 8.47 8.01H7.4C7.4 7.61 7.49 7.25333 7.67 6.94C7.85 6.62667 8.10667 6.38333 8.44 6.21C8.78 6.03667 9.17333 5.95 9.62 5.95ZM8.98 13.07C8.77333 13.07 8.6 13 8.46 12.86C8.32 12.72 8.25 12.5467 8.25 12.34C8.25 12.1333 8.32 11.96 8.46 11.82C8.6 11.68 8.77333 11.61 8.98 11.61C9.18 11.61 9.35 11.68 9.49 11.82C9.63 11.96 9.7 12.1333 9.7 12.34C9.7 12.5467 9.63 12.72 9.49 12.86C9.35 13 9.18 13.07 8.98 13.07Z" fill="#AAAAAA"/>
<circle cx="9" cy="9" r="8.5" stroke="#AAAAAA"/>
</svg>
