<svg width="27" height="27" viewBox="0 0 27 27" fill="none" xmlns="http://www.w3.org/2000/svg">
<path d="M13.5 27C20.9558 27 27 20.9558 27 13.5C27 6.04416 20.9558 0 13.5 0C6.04416 0 0 6.04416 0 13.5C0 20.9558 6.04416 27 13.5 27Z" fill="#FF2B72"/>
<path d="M20.3169 18.8412L18.8414 20.3167C18.4726 20.6855 17.8736 20.6855 17.5029 20.3167L6.68357 9.49733C6.31471 9.12847 6.31471 8.52952 6.68357 8.15884L8.15902 6.68339C8.52788 6.31452 9.12683 6.31452 9.49751 6.68339L20.3169 17.5027C20.6857 17.8716 20.6857 18.4724 20.3169 18.8412Z" fill="black"/>
<path d="M6.68341 18.8412L8.15886 20.3167C8.52772 20.6855 9.12667 20.6855 9.49736 20.3167L20.3167 9.49733C20.6856 9.12847 20.6856 8.52952 20.3167 8.15884L18.8413 6.68339C18.4724 6.31452 17.8735 6.31452 17.5028 6.68339L6.68341 17.5027C6.31272 17.8716 6.31272 18.4724 6.68341 18.8412Z" fill="black"/>
</svg>
