<svg width="17" height="21" viewBox="0 0 17 21" fill="none" xmlns="http://www.w3.org/2000/svg">
<path d="M16.8205 3.0126L8.41398 0L0.00744334 3.0126C0.00744334 3.0126 -0.141684 8.73167 0.895068 13.3289C1.93182 17.927 8.41398 20.3247 8.41398 20.3247C8.41398 20.3247 14.8961 17.927 15.9329 13.3289C16.9696 8.73167 16.8205 3.0126 16.8205 3.0126Z" fill="#B1155E"/>
<path d="M10.3437 12.4571H6.48427C5.92327 12.4571 5.46362 12.0001 5.46362 11.4403V8.22881C5.46362 7.66994 5.92238 7.21204 6.48427 7.21204H10.3437C10.9047 7.21204 11.3643 7.66994 11.3643 8.22881V11.4403C11.3634 12.0001 10.9047 12.4571 10.3437 12.4571Z" fill="white"/>
<path d="M8.47731 9.67334C7.39148 9.67334 6.50732 8.565 6.50732 7.20276C6.50732 5.84052 7.39058 4.73218 8.47731 4.73218C9.56314 4.73218 10.4473 5.84052 10.4473 7.20276C10.4473 8.565 9.56314 9.67334 8.47731 9.67334ZM8.47731 5.45246C7.78853 5.45246 7.22761 6.23758 7.22761 7.20276C7.22761 8.16794 7.78763 8.95306 8.47731 8.95306C9.16608 8.95306 9.727 8.16794 9.727 7.20276C9.727 6.23758 9.16608 5.45246 8.47731 5.45246Z" fill="white"/>
</svg>
