<svg width="117" height="20" viewBox="0 0 117 20" fill="none" xmlns="http://www.w3.org/2000/svg">
<rect x="1" y="1" width="114.261" height="18" rx="9" fill="#101010" stroke="white" stroke-width="2"/>
<path d="M22.3934 3.81743H19.7592V15.8696H21.412V7.34699L22.8239 15.8696H24.6145L25.923 7.22647V15.8696H27.7136V3.81743H25.0793L23.788 12.3745L22.3934 3.81743Z" fill="white"/>
<path d="M30.8302 6.58943C30.8302 5.72856 31.209 5.40143 31.8116 5.40143C32.4142 5.40143 32.793 5.72856 32.793 6.58943V13.0976C32.793 13.9585 32.4142 14.2856 31.8116 14.2856C31.209 14.2856 30.8302 13.9585 30.8302 13.0976V6.58943ZM28.9363 12.9771C28.9363 14.9054 29.9521 16.0073 31.8116 16.0073C33.6711 16.0073 34.6869 14.9054 34.6869 12.9771V6.70995C34.6869 4.7816 33.6711 3.67969 31.8116 3.67969C29.9521 3.67969 28.9363 4.7816 28.9363 6.70995V12.9771Z" fill="white"/>
<path d="M37.3127 3.81743H35.4016L37.261 15.8696H40.0847L41.9442 3.81743H40.2052L38.7589 13.6486L37.3127 3.81743Z" fill="white"/>
<path d="M42.8282 15.8696H44.7221V3.81743H42.8282V15.8696Z" fill="white"/>
<path d="M48.0008 5.53917H51.2721V3.81743H46.1069V15.8696H51.2721V14.1479H48.0008V10.6183H50.6006V8.89656H48.0008V5.53917Z" fill="white"/>
<path d="M52.2047 6.70995C52.2047 10.1534 55.9064 10.6183 55.9064 13.0976C55.9064 13.9585 55.5276 14.2684 54.925 14.2684C54.3224 14.2684 53.9436 13.9585 53.9436 13.0976V12.2367H52.153V12.9771C52.153 14.9054 53.1172 16.0073 54.9767 16.0073C56.8361 16.0073 57.8003 14.9054 57.8003 12.9771C57.8003 9.5336 54.0986 9.06873 54.0986 6.58943C54.0986 5.72856 54.4429 5.40143 55.0455 5.40143C55.6481 5.40143 55.9925 5.72856 55.9925 6.58943V7.08873H57.7831V6.70995C57.7831 4.7816 56.8361 3.67969 54.9939 3.67969C53.1516 3.67969 52.2047 4.7816 52.2047 6.70995Z" fill="white"/>
<path d="M58.3344 5.53917H60.3144V15.8696H62.2084V5.53917H64.1884V3.81743H58.3344V5.53917Z" fill="white"/>
<path d="M70.9108 15.8696C70.7214 15.4219 70.7042 14.9915 70.7042 14.4061V12.5466C70.7042 11.2898 70.3943 10.3773 69.4473 9.98125C70.291 9.58525 70.687 8.77603 70.687 7.53638V6.58943C70.687 4.72995 69.8433 3.81743 67.8806 3.81743H65.0225V15.8696H66.9164V10.9626H67.5706C68.4315 10.9626 68.8103 11.3759 68.8103 12.495V14.3889C68.8103 15.3703 68.8792 15.5597 68.9825 15.8696H70.9108ZM67.8289 5.53917C68.5004 5.53917 68.7931 5.91795 68.7931 6.77882V7.96682C68.7931 8.93099 68.3626 9.2409 67.6567 9.2409H66.9164V5.53917H67.8289Z" fill="white"/>
<path d="M73.8437 5.53917H77.115V3.81743H71.9498V15.8696H77.115V14.1479H73.8437V10.6183H76.4435V8.89656H73.8437V5.53917Z" fill="white"/>
<path d="M82.4896 3.81743H79.7176L77.7893 15.8696H79.5282L79.8554 13.683H82.1797L82.5069 15.8696H84.418L82.4896 3.81743ZM81.0089 5.95238L81.9215 12.0473H80.0964L81.0089 5.95238Z" fill="white"/>
<path d="M87.917 3.81743H85.2828V15.8696H86.9356V7.34699L88.3475 15.8696H90.1381L91.4466 7.22647V15.8696H93.2372V3.81743H90.6029L89.3116 12.3745L87.917 3.81743Z" fill="white"/>
<path d="M94.6149 15.8696H96.5088V3.81743H94.6149V15.8696Z" fill="white"/>
<path d="M101.94 15.8696H103.885V3.81743H102.198V11.0315L100.252 3.81743H97.8763V15.8696H99.5809V7.14038L101.94 15.8696Z" fill="white"/>
<path d="M108.082 10.8766H108.943V13.0976C108.943 13.9585 108.564 14.2684 107.962 14.2684C107.359 14.2684 106.98 13.9585 106.98 13.0976V6.58943C106.98 5.72856 107.359 5.40143 107.962 5.40143C108.564 5.40143 108.943 5.72856 108.943 6.58943V7.88073H110.734V6.70995C110.734 4.7816 109.769 3.67969 107.91 3.67969C106.05 3.67969 105.086 4.7816 105.086 6.70995V12.9771C105.086 14.9054 106.05 16.0073 107.91 16.0073C109.769 16.0073 110.734 14.9054 110.734 12.9771V9.15482H108.082V10.8766Z" fill="white"/>
<circle cx="10.0003" cy="9.99997" r="7.43478" fill="white"/>
<path d="M12.0358 9.67388L9.10098 11.7072V7.6406L12.0358 9.67388Z" fill="#101010"/>
</svg>
